#Comment line ignore any data following # character 
#Hierarchical Translation and Rotation (.htr) file 
[Header]	
#Header keywords are followed by a single value 
FileType HTR		#Single word string
DataType HTRS		#Translation followed by rotation and scale data
FileVersion 1		#integer
NumSegments 84		#integer
NumFrames 2		#integer
DataFrameRate 30		#integer, data frame rate in this file
EulerRotationOrder ZYX
CalibrationUnits mm
RotationUnits Degrees
GlobalAxisofGravity Y
BoneLengthAxis Y
ScaleFactor 1.00
[SegmentNames&Hierarchy]
#CHILD	PARENT
MASTER GLOBAL
root MASTER
chest root
L_mid_tent01 root
R_mid_tent01 root
spine01 root
Bip01_Neck chest
L_humerus chest
R_humerus chest
weapon_bone chest
Bip01_Head Bip01_Neck
eye_left_bone Bip01_Head
eye_right_bone Bip01_Head
L_forearm L_humerus
L_front_hand L_forearm
L_weapon_bone L_forearm
L_front_hand01_01 L_front_hand
L_front_hand02_01 L_front_hand
L_front_hand03_01 L_front_hand
L_front_hand01_02 L_front_hand01_01
L_front_hand02_02 L_front_hand02_01
L_front_hand03_02 L_front_hand03_01
R_forearm R_humerus
R_front_hand R_forearm
R_weapon_bone R_forearm
R_front_hand01_01 R_front_hand
R_front_hand02_01 R_front_hand
R_front_hand03_01 R_front_hand
R_front_hand01_02 R_front_hand01_01
R_front_hand02_02 R_front_hand02_01
R_front_hand03_02 R_front_hand03_01
null_rope01_connect L_mid_tent01
Rope1_Seg01 null_rope01_connect
Rope1_Seg02 Rope1_Seg01
Rope1_Seg03 Rope1_Seg02
Rope1_Seg04 Rope1_Seg03
Rope1_Seg05 Rope1_Seg04
Rope1_Seg06 Rope1_Seg05
Rope1_Seg07 Rope1_Seg06
Rope1_Seg09 Rope1_Seg07
L_mid_hand01 Rope1_Seg09
L_mid_hand02 Rope1_Seg09
L_mid_hand03 Rope1_Seg09
null_rope02_connect R_mid_tent01
Rope2_Seg01 null_rope02_connect
Rope2_Seg02 Rope2_Seg01
Rope2_Seg03 Rope2_Seg02
Rope2_Seg04 Rope2_Seg03
Rope2_Seg05 Rope2_Seg04
Rope2_Seg06 Rope2_Seg05
Rope2_Seg07 Rope2_Seg06
Rope2_Seg09 Rope2_Seg07
R_mid_hand01 Rope2_Seg09
R_mid_hand02 Rope2_Seg09
R_mid_hand03 Rope2_Seg09
spine02 spine01
spine03 spine02
pelvis spine03
null_rope03_connect pelvis
null_rope04_connect pelvis
Rope3_Seg01 null_rope03_connect
Rope3_Seg02 Rope3_Seg01
Rope3_Seg03 Rope3_Seg02
Rope3_Seg04 Rope3_Seg03
Rope3_Seg05 Rope3_Seg04
Rope3_Seg06 Rope3_Seg05
Rope3_Seg07 Rope3_Seg06
Rope3_Seg08 Rope3_Seg07
Rope3_Seg09 Rope3_Seg08
R_rear_hand01 Rope3_Seg09
R_rear_hand02 Rope3_Seg09
R_rear_hand03 Rope3_Seg09
Rope4_Seg01 null_rope04_connect
Rope4_Seg02 Rope4_Seg01
Rope4_Seg03 Rope4_Seg02
Rope4_Seg04 Rope4_Seg03
Rope4_Seg05 Rope4_Seg04
Rope4_Seg06 Rope4_Seg05
Rope4_Seg07 Rope4_Seg06
Rope4_Seg08 Rope4_Seg07
Rope4_Seg09 Rope4_Seg08
L_rear_hand01 Rope4_Seg09
L_rear_hand02 Rope4_Seg09
L_rear_hand03 Rope4_Seg09
[BasePosition]
#SegmentName Tx, Ty, Tz, Rx, Ry, Rz, BoneLength
MASTER 0.000000 0.000000 0.000000 -90.000000 0.000000 0.000000 10.000000 
root 0.000000 0.000000 0.000000 0.000000 0.000000 0.000000 10.000000 
chest 0.000000 0.000000 0.000000 0.000000 0.000000 0.000000 10.000000 
L_mid_tent01 0.000000 0.000000 0.000000 0.000000 0.000000 0.000000 10.000000 
R_mid_tent01 0.000000 0.000000 0.000000 0.000000 0.000000 0.000000 10.000000 
spine01 0.000000 0.000000 0.000000 0.000000 0.000000 0.000000 10.000000 
Bip01_Neck 0.000000 0.000000 0.000000 0.000000 0.000000 0.000000 10.000000 
L_humerus 0.000000 0.000000 0.000000 0.000000 0.000000 0.000000 10.000000 
R_humerus 0.000000 0.000000 0.000000 0.000000 0.000000 0.000000 10.000000 
weapon_bone 0.000000 0.000000 0.000000 0.000000 0.000000 0.000000 10.000000 
Bip01_Head 0.000000 0.000000 0.000000 0.000000 0.000000 0.000000 10.000000 
eye_left_bone 0.000000 0.000000 0.000000 0.000000 0.000000 0.000000 10.000000 
eye_right_bone 0.000000 0.000000 0.000000 0.000000 0.000000 0.000000 10.000000 
L_forearm 0.000000 0.000000 0.000000 0.000000 0.000000 0.000000 10.000000 
L_front_hand 0.000000 0.000000 0.000000 0.000000 0.000000 0.000000 10.000000 
L_weapon_bone 0.000000 0.000000 0.000000 0.000000 0.000000 0.000000 10.000000 
L_front_hand01_01 0.000000 0.000000 0.000000 0.000000 0.000000 0.000000 10.000000 
L_front_hand02_01 0.000000 0.000000 0.000000 0.000000 0.000000 0.000000 10.000000 
L_front_hand03_01 0.000000 0.000000 0.000000 0.000000 0.000000 0.000000 10.000000 
L_front_hand01_02 0.000000 0.000000 0.000000 0.000000 0.000000 0.000000 10.000000 
L_front_hand02_02 0.000000 0.000000 0.000000 0.000000 0.000000 0.000000 10.000000 
L_front_hand03_02 0.000000 0.000000 0.000000 0.000000 0.000000 0.000000 10.000000 
R_forearm 0.000000 0.000000 0.000000 0.000000 0.000000 0.000000 10.000000 
R_front_hand 0.000000 0.000000 0.000000 0.000000 0.000000 0.000000 10.000000 
R_weapon_bone 0.000000 0.000000 0.000000 0.000000 0.000000 0.000000 10.000000 
R_front_hand01_01 0.000000 0.000000 0.000000 0.000000 0.000000 0.000000 10.000000 
R_front_hand02_01 0.000000 0.000000 0.000000 0.000000 0.000000 0.000000 10.000000 
R_front_hand03_01 0.000000 0.000000 0.000000 0.000000 0.000000 0.000000 10.000000 
R_front_hand01_02 0.000000 0.000000 0.000000 0.000000 0.000000 0.000000 10.000000 
R_front_hand02_02 0.000000 0.000000 0.000000 0.000000 0.000000 0.000000 10.000000 
R_front_hand03_02 0.000000 0.000000 0.000000 0.000000 0.000000 0.000000 10.000000 
null_rope01_connect 0.000000 0.000000 0.000000 0.000000 0.000000 0.000000 10.000000 
Rope1_Seg01 0.000000 0.000000 0.000000 0.000000 0.000000 0.000000 10.000000 
Rope1_Seg02 0.000000 0.000000 0.000000 0.000000 0.000000 0.000000 10.000000 
Rope1_Seg03 0.000000 0.000000 0.000000 0.000000 0.000000 0.000000 10.000000 
Rope1_Seg04 0.000000 0.000000 0.000000 0.000000 0.000000 0.000000 10.000000 
Rope1_Seg05 0.000000 0.000000 0.000000 0.000000 0.000000 0.000000 10.000000 
Rope1_Seg06 0.000000 0.000000 0.000000 0.000000 0.000000 0.000000 10.000000 
Rope1_Seg07 0.000000 0.000000 0.000000 0.000000 0.000000 0.000000 10.000000 
Rope1_Seg09 0.000000 0.000000 0.000000 0.000000 0.000000 0.000000 10.000000 
L_mid_hand01 0.000000 0.000000 0.000000 0.000000 0.000000 0.000000 10.000000 
L_mid_hand02 0.000000 0.000000 0.000000 0.000000 0.000000 0.000000 10.000000 
L_mid_hand03 0.000000 0.000000 0.000000 0.000000 0.000000 0.000000 10.000000 
null_rope02_connect 0.000000 0.000000 0.000000 0.000000 0.000000 0.000000 10.000000 
Rope2_Seg01 0.000000 0.000000 0.000000 0.000000 0.000000 0.000000 10.000000 
Rope2_Seg02 0.000000 0.000000 0.000000 0.000000 0.000000 0.000000 10.000000 
Rope2_Seg03 0.000000 0.000000 0.000000 0.000000 0.000000 0.000000 10.000000 
Rope2_Seg04 0.000000 0.000000 0.000000 0.000000 0.000000 0.000000 10.000000 
Rope2_Seg05 0.000000 0.000000 0.000000 0.000000 0.000000 0.000000 10.000000 
Rope2_Seg06 0.000000 0.000000 0.000000 0.000000 0.000000 0.000000 10.000000 
Rope2_Seg07 0.000000 0.000000 0.000000 0.000000 0.000000 0.000000 10.000000 
Rope2_Seg09 0.000000 0.000000 0.000000 0.000000 0.000000 0.000000 10.000000 
R_mid_hand01 0.000000 0.000000 0.000000 0.000000 0.000000 0.000000 10.000000 
R_mid_hand02 0.000000 0.000000 0.000000 0.000000 0.000000 0.000000 10.000000 
R_mid_hand03 0.000000 0.000000 0.000000 0.000000 0.000000 0.000000 10.000000 
spine02 0.000000 0.000000 0.000000 0.000000 0.000000 0.000000 10.000000 
spine03 0.000000 0.000000 0.000000 0.000000 0.000000 0.000000 10.000000 
pelvis 0.000000 0.000000 0.000000 0.000000 0.000000 0.000000 10.000000 
null_rope03_connect 0.000000 0.000000 0.000000 0.000000 0.000000 0.000000 10.000000 
null_rope04_connect 0.000000 0.000000 0.000000 0.000000 0.000000 0.000000 10.000000 
Rope3_Seg01 0.000000 0.000000 0.000000 0.000000 0.000000 0.000000 10.000000 
Rope3_Seg02 0.000000 0.000000 0.000000 0.000000 0.000000 0.000000 10.000000 
Rope3_Seg03 0.000000 0.000000 0.000000 0.000000 0.000000 0.000000 10.000000 
Rope3_Seg04 0.000000 0.000000 0.000000 0.000000 0.000000 0.000000 10.000000 
Rope3_Seg05 0.000000 0.000000 0.000000 0.000000 0.000000 0.000000 10.000000 
Rope3_Seg06 0.000000 0.000000 0.000000 0.000000 0.000000 0.000000 10.000000 
Rope3_Seg07 0.000000 0.000000 0.000000 0.000000 0.000000 0.000000 10.000000 
Rope3_Seg08 0.000000 0.000000 0.000000 0.000000 0.000000 0.000000 10.000000 
Rope3_Seg09 0.000000 0.000000 0.000000 0.000000 0.000000 0.000000 10.000000 
R_rear_hand01 0.000000 0.000000 0.000000 0.000000 0.000000 0.000000 10.000000 
R_rear_hand02 0.000000 0.000000 0.000000 0.000000 0.000000 0.000000 10.000000 
R_rear_hand03 0.000000 0.000000 0.000000 0.000000 0.000000 0.000000 10.000000 
Rope4_Seg01 0.000000 0.000000 0.000000 0.000000 0.000000 0.000000 10.000000 
Rope4_Seg02 0.000000 0.000000 0.000000 0.000000 0.000000 0.000000 10.000000 
Rope4_Seg03 0.000000 0.000000 0.000000 0.000000 0.000000 0.000000 10.000000 
Rope4_Seg04 0.000000 0.000000 0.000000 0.000000 0.000000 0.000000 10.000000 
Rope4_Seg05 0.000000 0.000000 0.000000 0.000000 0.000000 0.000000 10.000000 
Rope4_Seg06 0.000000 0.000000 0.000000 0.000000 0.000000 0.000000 10.000000 
Rope4_Seg07 0.000000 0.000000 0.000000 0.000000 0.000000 0.000000 10.000000 
Rope4_Seg08 0.000000 0.000000 0.000000 0.000000 0.000000 0.000000 10.000000 
Rope4_Seg09 0.000000 0.000000 0.000000 0.000000 0.000000 0.000000 10.000000 
L_rear_hand01 0.000000 0.000000 0.000000 0.000000 0.000000 0.000000 10.000000 
L_rear_hand02 0.000000 0.000000 0.000000 0.000000 0.000000 0.000000 10.000000 
L_rear_hand03 0.000000 0.000000 0.000000 0.000000 0.000000 0.000000 10.000000 
#Beginning of Data. Separated by tabs
#Fr	Tx	Ty	Tz	Rx	Ry	Rz	SF
[MASTER]
13 -1232.919189 2543.620361 -598.152039 0.001660 0.001660 0.001660 2889.269775
14 -1328.834473 2724.006104 -780.789307 0.001660 0.001660 0.001660 3129.799316
[root]
13 110.872574 -243.757614 622.927551 -61.787304 -7.977706 -73.575211 678.048096
14 96.371078 -229.712219 674.482910 -68.610367 -18.266521 -79.655685 719.014771
[chest]
13 -84.512650 -34.090519 0.000000 8.179923 -8.183469 165.704498 91.129311
14 -84.512650 -34.090519 0.000000 4.024984 -8.823468 168.352585 91.129311
[L_mid_tent01]
13 27.299067 22.179220 -249.918777 -18.547234 12.711741 27.896650 252.381744
14 27.299078 22.179209 -249.918777 -17.998453 15.271946 30.624680 252.381744
[R_mid_tent01]
13 23.228794 24.509907 226.238495 159.135834 -3.619036 11.173054 228.744751
14 23.228794 24.509907 226.238495 161.518539 -4.841739 15.721844 228.744751
[spine01]
13 -0.361383 -0.195265 0.000000 0.001691 0.001628 2.163051 0.410763
14 -0.361383 -0.195265 0.000000 0.001701 0.001617 2.919928 0.410763
[Bip01_Neck]
13 165.484543 71.581718 0.000119 176.643677 -1.657967 43.431911 180.302734
14 165.484543 71.581718 0.000119 176.643677 -1.657967 43.431911 180.302734
[L_humerus]
13 -13.983130 -135.272980 -120.471481 171.697205 0.414073 -145.146317 181.680161
14 -13.983130 -135.272980 -120.471481 168.582260 7.719687 -143.438599 181.680161
[R_humerus]
13 -13.983309 -135.273102 125.287651 -177.929306 -2.026244 -147.845184 184.909012
14 -13.983309 -135.273102 125.287651 -174.563293 -9.153681 -145.267303 184.909012
[weapon_bone]
13 235.964890 -300.705902 0.000000 0.000000 -89.951546 -128.212341 382.234833
14 235.964890 -300.705902 0.000000 0.000000 -89.951546 -128.212341 382.234833
[Bip01_Head]
13 213.394516 185.853333 9.998654 -3.934008 2.502666 -42.060234 283.158356
14 213.400970 185.835266 10.231864 -3.723743 2.700484 -42.496128 283.159698
[eye_left_bone]
13 -24.626970 125.451866 -64.772606 0.000000 -90.000000 -99.840431 143.318359
14 -24.626970 125.451866 -64.772606 0.000000 -90.000000 -99.840431 143.318359
[eye_right_bone]
13 -24.626970 125.451866 64.327362 0.000000 -89.965736 80.156380 143.117676
14 -24.626970 125.451866 64.327362 0.000000 -89.965736 80.156380 143.117676
[L_forearm]
13 322.776093 0.000000 -0.000119 0.000411 -0.002311 -110.145073 322.776093
14 322.776093 0.000000 -0.000119 0.000408 -0.002311 -110.042564 322.776093
[L_front_hand]
13 241.149185 -0.042021 -3.300071 -178.667953 -1.835447 -27.422342 241.171753
14 241.149185 -0.042021 -3.300071 -178.667953 -1.835447 -27.422350 241.171753
[L_weapon_bone]
13 156.183838 0.000000 0.000000 0.000014 0.000007 0.000001 156.183838
14 156.183838 0.000000 0.000000 0.000014 0.000007 0.000001 156.183838
[L_front_hand01_01]
13 86.095154 20.947098 -0.655860 -0.366594 -0.477154 75.385574 88.609184
14 86.095154 20.947098 -0.655860 -0.366594 -0.477154 75.385574 88.609184
[L_front_hand02_01]
13 86.935165 -11.437475 24.513514 154.399796 -59.883835 -61.369587 91.046425
14 86.935165 -11.437475 24.513514 154.399796 -59.883835 -61.369587 91.046425
[L_front_hand03_01]
13 86.637497 -14.123976 -20.424902 -153.913879 58.118130 -62.702892 90.126129
14 86.637497 -14.123976 -20.424902 -153.913849 58.118122 -62.702866 90.126129
[L_front_hand01_02]
13 71.020905 -0.000179 0.000030 0.000334 -0.002323 -106.369232 71.020905
14 71.020905 -0.000179 0.000030 0.000334 -0.002323 -106.370186 71.020905
[L_front_hand02_02]
13 71.020927 -0.000119 0.000060 0.000334 -0.002323 -106.369232 71.020927
14 71.020927 -0.000119 0.000060 0.000334 -0.002323 -106.370186 71.020927
[L_front_hand03_02]
13 71.020905 -0.000060 0.000060 0.000334 -0.002323 -106.369232 71.020905
14 71.020905 -0.000060 0.000060 0.000334 -0.002323 -106.370186 71.020905
[R_forearm]
13 322.776428 -0.000060 0.000030 0.201683 0.066450 -108.795860 322.776428
14 322.776428 -0.000060 0.000030 0.201742 0.066270 -108.693901 322.776428
[R_front_hand]
13 238.847015 -0.006795 2.210259 -2.635298 -10.645461 -26.312506 238.857239
14 238.847015 -0.006795 2.210259 -2.635298 -10.645461 -26.312506 238.857239
[R_weapon_bone]
13 155.664093 0.002503 -0.000030 0.003487 0.001180 -90.988930 155.664078
14 155.664093 0.002503 -0.000030 0.003487 0.001180 -90.988930 155.664078
[R_front_hand01_01]
13 87.624611 14.231146 22.918642 -154.633499 -59.950619 61.746044 91.683487
14 87.624611 14.231146 22.918642 -154.633499 -59.950619 61.746044 91.683487
[R_front_hand02_01]
13 89.356956 14.367283 -19.491137 154.602661 58.302849 63.744389 92.579636
14 89.356956 14.367283 -19.491137 154.602661 58.302849 63.744389 92.579636
[R_front_hand03_01]
13 87.286232 -22.307278 -0.143439 0.162155 -0.423168 -75.767921 90.091743
14 87.286232 -22.307278 -0.143439 0.162155 -0.423168 -75.767921 90.091743
[R_front_hand01_02]
13 71.020905 0.000060 0.000119 0.002323 -0.000334 106.381714 71.020905
14 71.020905 0.000060 0.000119 0.002323 -0.000334 106.381714 71.020905
[R_front_hand02_02]
13 71.020844 -0.000030 -0.000119 0.002323 -0.000334 106.381714 71.020836
14 71.020844 -0.000030 -0.000119 0.002323 -0.000334 106.381714 71.020836
[R_front_hand03_02]
13 71.020905 0.000000 0.000030 0.002323 -0.000334 106.381714 71.020905
14 71.020905 0.000000 0.000030 0.002323 -0.000334 106.381714 71.020905
[null_rope01_connect]
13 328.732483 0.000000 -0.000238 67.651024 -73.601097 -1.052913 328.732483
14 328.732483 0.000000 -0.000238 95.913261 -83.362267 -21.267719 328.732483
[Rope1_Seg01]
13 0.000022 -0.000052 0.000080 78.982285 11.938381 -97.841942 0.000097
14 0.000027 -0.000051 0.000086 43.327038 12.763249 -123.356987 0.000103
[Rope1_Seg02]
13 139.999863 -0.000179 0.000000 -9.058496 -4.578146 -9.398772 139.999863
14 139.999863 -0.000179 0.000000 -4.082727 2.272510 -8.104577 139.999863
[Rope1_Seg03]
13 139.999924 0.000060 -0.000060 -11.635383 -7.752768 -16.603327 139.999924
14 139.999924 0.000060 -0.000060 -6.435016 0.310560 -12.628108 139.999924
[Rope1_Seg04]
13 139.999924 -0.000060 -0.000119 20.046877 13.037621 21.007370 139.999924
14 139.999924 -0.000060 -0.000119 1.543754 3.824647 -0.649538 139.999924
[Rope1_Seg05]
13 139.999832 0.000119 -0.000060 13.915863 12.816142 11.812840 139.999832
14 139.999832 0.000119 -0.000060 16.710617 9.035569 20.315893 139.999832
[Rope1_Seg06]
13 139.999954 0.000119 -0.000060 4.741605 6.261699 3.290435 139.999954
14 139.999954 0.000119 -0.000060 11.410593 8.869882 10.116982 139.999954
[Rope1_Seg07]
13 139.999985 0.000060 0.000000 2.262306 3.426394 1.460000 139.999985
14 139.999985 0.000060 0.000000 6.262703 6.268963 4.656637 139.999985
[Rope1_Seg09]
13 121.602913 0.000119 -0.000089 -89.793175 -1.359789 0.847147 121.602913
14 121.602913 0.000119 -0.000089 -89.793175 -1.359789 0.847147 121.602913
[L_mid_hand01]
13 103.859421 1.038730 8.195221 130.544373 -67.584534 -38.866947 104.187431
14 103.859421 1.038730 8.195221 130.544373 -67.584534 -38.866943 104.187431
[L_mid_hand02]
13 105.572853 -4.139662 -10.864139 -168.923172 43.409317 -73.498894 106.211075
14 105.572853 -4.139662 -10.864139 -168.923172 43.409317 -73.498901 106.211075
[L_mid_hand03]
13 104.641464 17.579376 -3.913581 -6.012625 17.808172 74.893669 106.179977
14 104.641464 17.579376 -3.913581 -6.012628 17.808178 74.893669 106.179977
[null_rope02_connect]
13 328.732849 0.000179 -0.000119 -106.552162 64.209488 -14.788283 328.732849
14 328.732849 0.000179 -0.000119 -94.141464 69.231758 -9.111153 328.732849
[Rope2_Seg01]
13 0.000027 0.000232 0.000000 -38.460243 -11.081030 -59.560986 0.000234
14 0.000025 0.000239 0.000000 -44.607998 -12.302018 -62.690708 0.000240
[Rope2_Seg02]
13 139.999741 -0.000060 -0.000119 -7.814244 8.667046 -8.243022 139.999756
14 139.999741 -0.000060 -0.000119 -13.275841 9.658863 -13.239225 139.999756
[Rope2_Seg03]
13 140.000107 0.000030 0.000000 -6.193943 3.152288 -5.938743 140.000107
14 140.000107 0.000030 0.000000 -8.289567 1.577763 -8.148075 140.000107
[Rope2_Seg04]
13 139.999802 0.000000 -0.000060 2.362723 2.982293 0.607501 139.999802
14 139.999802 0.000000 -0.000060 6.695828 6.740594 3.930438 139.999802
[Rope2_Seg05]
13 139.999985 -0.000060 0.000119 10.180519 4.876169 6.770943 139.999985
14 139.999985 -0.000060 0.000119 14.353354 14.023573 12.094668 139.999985
[Rope2_Seg06]
13 139.999893 -0.000030 -0.000119 9.721007 6.710365 6.636632 139.999893
14 139.999893 -0.000030 -0.000119 6.015272 11.795374 5.663766 139.999893
[Rope2_Seg07]
13 139.999893 0.000060 -0.000060 5.326794 5.817731 3.554782 139.999893
14 139.999893 0.000060 -0.000060 2.244452 7.459606 2.463134 139.999893
[Rope2_Seg09]
13 121.338966 0.000089 -0.000060 33.793236 -1.359788 -0.847141 121.338966
14 121.338966 0.000089 -0.000060 33.793236 -1.359788 -0.847141 121.338966
[R_mid_hand01]
13 104.680779 11.144459 -10.335981 -16.212055 45.237240 70.462852 105.778534
14 104.680779 11.144459 -10.335981 -16.212059 45.237240 70.462852 105.778534
[R_mid_hand02]
13 104.070427 2.443552 8.231699 49.067368 -67.749771 39.286453 104.424065
14 104.070427 2.443552 8.231699 49.067368 -67.749771 39.286453 104.424065
[R_mid_hand03]
13 106.028137 -11.221827 -5.996406 -177.101105 15.551026 -76.585571 106.788818
14 106.028137 -11.221827 -5.996406 -177.101105 15.551026 -76.585571 106.788818
[spine02]
13 129.756927 0.001550 0.000119 0.431203 -4.037193 -13.956249 129.756927
14 129.756927 0.001550 0.000119 0.421053 -4.038329 -13.807714 129.756927
[spine03]
13 78.613815 0.081276 -4.898925 1.948484 3.804289 17.267693 78.766350
14 78.613792 0.081309 -4.898917 1.943774 3.806773 17.195450 78.766327
[pelvis]
13 169.435242 0.051022 0.000000 0.025626 -0.189615 -11.436968 169.435257
14 169.435242 0.051022 0.000000 0.026900 -0.189439 -12.207649 169.435257
[null_rope03_connect]
13 -1.257226 -2.466202 137.391083 33.066628 -54.612141 66.624817 137.418976
14 -1.257226 -2.466202 137.391083 38.423817 -62.398102 73.820396 137.418976
[null_rope04_connect]
13 -1.259640 -2.480268 -137.844437 33.066628 -54.612141 66.624817 137.872513
14 -1.259640 -2.480268 -137.844437 38.423817 -62.398102 73.820396 137.872513
[Rope3_Seg01]
13 0.000000 0.000000 0.000000 17.341358 19.057726 -79.369934 0.000000
14 0.000000 0.000000 0.000000 15.686614 11.204505 -85.830704 0.000000
[Rope3_Seg02]
13 139.999924 -0.000119 0.000060 -1.383095 -12.148851 6.638388 139.999924
14 139.999924 -0.000119 0.000060 0.498154 -11.697680 6.960017 139.999924
[Rope3_Seg03]
13 139.999924 -0.000119 0.000119 -0.860770 -11.144922 5.673372 139.999924
14 139.999924 -0.000119 0.000119 0.613309 -11.239585 6.778637 139.999924
[Rope3_Seg04]
13 139.999924 0.000119 0.000000 -0.448855 -9.986446 4.698925 139.999924
14 139.999924 0.000119 0.000000 0.637625 -10.319468 6.224110 139.999924
[Rope3_Seg05]
13 139.999924 -0.000238 0.000060 0.137683 -0.766294 1.108618 139.999924
14 139.999924 -0.000238 0.000060 0.203039 -0.168193 0.955894 139.999924
[Rope3_Seg06]
13 139.999893 -0.000119 -0.000060 0.454555 6.727856 -1.398486 139.999893
14 139.999893 -0.000119 -0.000060 -0.408416 7.779173 -3.040390 139.999893
[Rope3_Seg07]
13 139.999771 0.000060 -0.000119 0.794142 5.812526 -0.973230 139.999771
14 139.999771 0.000060 -0.000119 0.141518 5.843290 -1.917584 139.999771
[Rope3_Seg08]
13 139.999985 -0.000060 0.000000 0.865854 3.908401 -0.488413 139.999985
14 139.999985 -0.000060 0.000000 0.420286 4.037799 -1.181151 139.999985
[Rope3_Seg09]
13 90.185997 -0.000179 -0.000060 89.793228 -1.359877 -0.847183 90.185997
14 90.185997 -0.000179 -0.000060 89.793228 -1.359877 -0.847183 90.185997
[R_rear_hand01]
13 103.366196 -6.073594 -10.757982 -177.714203 24.565960 -73.910950 104.101845
14 103.366196 -6.073594 -10.757982 -177.714203 24.565960 -73.910950 104.101845
[R_rear_hand02]
13 100.509819 12.039542 -7.992327 -12.874829 36.868488 72.167213 101.543350
14 100.509819 12.039542 -7.992327 -12.874829 36.868488 72.167213 101.543350
[R_rear_hand03]
13 101.539970 5.215704 5.435467 71.484581 -71.816628 21.513813 101.819031
14 101.539970 5.215704 5.435467 71.484581 -71.816628 21.513813 101.819031
[Rope4_Seg01]
13 -0.000029 -0.000177 0.000000 -79.966377 26.264261 -63.084099 0.000180
14 -0.000030 -0.000189 0.000000 -90.622818 17.897671 -77.104591 0.000191
[Rope4_Seg02]
13 139.999985 0.000060 0.000119 -3.643274 3.854985 -6.654878 139.999985
14 139.999985 0.000060 0.000119 -1.413317 5.153578 -2.829865 139.999985
[Rope4_Seg03]
13 139.999924 0.000000 -0.000238 -5.125761 6.168982 -9.431618 139.999924
14 139.999924 0.000000 -0.000238 -1.772913 8.214513 -4.599818 139.999924
[Rope4_Seg04]
13 139.999985 0.000000 0.000119 -4.531426 7.039612 -8.943691 139.999985
14 139.999985 0.000000 0.000119 -0.869794 8.571489 -3.813721 139.999985
[Rope4_Seg05]
13 139.999802 -0.000060 -0.000119 -0.073731 0.476263 -0.290442 139.999802
14 139.999802 -0.000060 -0.000119 0.145851 -0.861400 1.875117 139.999802
[Rope4_Seg06]
13 139.999924 0.000000 0.000060 -0.287371 0.904502 -0.900765 139.999924
14 139.999924 0.000000 0.000060 0.116994 0.560194 0.323706 139.999924
[Rope4_Seg07]
13 139.999802 0.000000 0.000000 -0.145548 0.658615 -0.656966 139.999802
14 139.999802 0.000000 0.000000 0.140833 0.426764 0.185173 139.999802
[Rope4_Seg08]
13 139.999924 0.000000 0.000119 -1.601933 0.357709 -0.359470 139.999924
14 139.999924 0.000000 0.000119 -1.447325 0.195612 0.083276 139.999924
[Rope4_Seg09]
13 90.185791 0.000060 0.000060 -135.617828 2.228885 0.850567 90.185791
14 90.185791 0.000060 0.000060 -135.617828 2.228885 0.850567 90.185791
[L_rear_hand01]
13 101.696655 -8.392275 -7.654577 -12.874829 -36.868488 107.832764 102.329041
14 101.696655 -8.392275 -7.654577 -12.874827 -36.868492 107.832764 102.329041
[L_rear_hand02]
13 102.726799 -1.568258 5.773216 71.484581 71.816628 158.486160 102.900848
14 102.726799 -1.568258 5.773216 71.484589 71.816643 158.486160 102.900848
[L_rear_hand03]
13 104.552910 9.721220 -10.420293 -177.714203 -24.565960 -106.089035 105.519653
14 104.552910 9.721220 -10.420293 -177.714203 -24.565960 -106.089035 105.519653
